<svg width="94" height="94" viewBox="0 0 94 94" fill="none" xmlns="http://www.w3.org/2000/svg">
<path d="M56.3714 72.1457C56.3714 74.8731 58.5824 77.0842 61.3099 77.0842C64.0373 77.0842 66.2484 74.8731 66.2484 72.1457C66.2484 69.4182 64.0373 67.2072 61.3099 67.2072C58.5824 67.2072 56.3714 69.4182 56.3714 72.1457Z" fill="#D8C4FC" stroke="url(#paint0_linear_4_84)" stroke-width="2" stroke-miterlimit="10" stroke-linecap="round" stroke-linejoin="round"/>
<path d="M33.8037 44.378L51.9419 77.3056C54.7956 82.4917 61.2977 84.368 66.4707 81.5144C71.6437 78.6607 73.5201 72.1717 70.6665 66.9856C67.8128 61.8126 61.3237 59.9362 56.1507 62.7768C55.7989 62.9723 55.4601 63.1807 55.1344 63.4153L31.5234 20.5195C30.2465 24.4807 29.8034 28.6113 30.1943 32.6768C30.5722 36.7423 31.7971 40.7165 33.8037 44.378Z" stroke="url(#paint1_linear_4_84)" stroke-width="2" stroke-miterlimit="10" stroke-linecap="round" stroke-linejoin="round" stroke-dasharray="3 3"/>
<path d="M61.2533 44.378L43.1151 77.3056C40.2615 82.4917 33.7594 84.368 28.5864 81.5144C23.4133 78.6607 21.537 72.1717 24.3906 66.9856C27.2442 61.8126 33.7333 59.9362 38.9064 62.7768C39.2582 62.9723 39.597 63.1807 39.9227 63.4153L63.5336 20.5195C64.8106 24.4807 65.2536 28.6113 64.8627 32.6768C64.4848 36.7423 63.26 40.7165 61.2533 44.378Z" fill="white" stroke="url(#paint2_linear_4_84)" stroke-width="2" stroke-miterlimit="10" stroke-linecap="round" stroke-linejoin="round" stroke-dasharray="3 3"/>
<path d="M28.8789 72.1455C28.8789 74.873 31.0899 77.084 33.8174 77.084C36.5448 77.084 38.7559 74.873 38.7559 72.1455C38.7559 69.4181 36.5448 67.207 33.8174 67.207C31.0899 67.207 28.8789 69.4181 28.8789 72.1455Z" fill="#D8C4FC" stroke="url(#paint3_linear_4_84)" stroke-width="2" stroke-miterlimit="10" stroke-linecap="round" stroke-linejoin="round"/>
<path d="M56 14.1524C56 8.52 51.4797 6 47 6C42.6372 6 38 9.11463 38 14.8885C38 15.4748 38.2371 16.0371 38.659 16.4516C39.081 16.8662 39.6533 17.0991 40.25 17.0991C40.8467 17.0991 41.419 16.8662 41.841 16.4516C42.2629 16.0371 42.5 15.4748 42.5 14.8885C42.5 11.8181 44.8333 10.4211 47 10.4211C48.6807 10.4211 51.5 10.9052 51.5 14.1524C51.5 15.3019 51.1918 16.6459 48.917 17.8794C47.369 18.7149 44.75 20.8791 44.75 23.6842C44.75 24.2705 44.9871 24.8327 45.409 25.2473C45.831 25.6618 46.4033 25.8947 47 25.8947C47.5967 25.8947 48.169 25.6618 48.591 25.2473C49.0129 24.8327 49.25 24.2705 49.25 23.6842C49.25 23.2731 50.141 22.2628 51.086 21.7522C54.3463 19.9904 56 17.4306 56 14.1524Z" fill="#CDB3FB"/>
<ellipse cx="47" cy="30.5132" rx="2.52" ry="2.48684" fill="#CDB3FB"/>
<defs>
<linearGradient id="paint0_linear_4_84" x1="61.3099" y1="67.2072" x2="61.3099" y2="77.0842" gradientUnits="userSpaceOnUse">
<stop stop-color="#BDA1FF"/>
<stop offset="0.345" stop-color="#9567FE"/>
<stop offset="0.69" stop-color="#A47DFF"/>
<stop offset="1" stop-color="#7A4BE7"/>
</linearGradient>
<linearGradient id="paint1_linear_4_84" x1="51.0285" y1="20.5195" x2="51.0285" y2="82.8475" gradientUnits="userSpaceOnUse">
<stop stop-color="#BDA1FF"/>
<stop offset="0.345" stop-color="#9567FE"/>
<stop offset="0.69" stop-color="#A47DFF"/>
<stop offset="1" stop-color="#7A4BE7"/>
</linearGradient>
<linearGradient id="paint2_linear_4_84" x1="44.0286" y1="20.5195" x2="44.0286" y2="82.8475" gradientUnits="userSpaceOnUse">
<stop stop-color="#BDA1FF"/>
<stop offset="0.345" stop-color="#9567FE"/>
<stop offset="0.69" stop-color="#A47DFF"/>
<stop offset="1" stop-color="#7A4BE7"/>
</linearGradient>
<linearGradient id="paint3_linear_4_84" x1="33.8174" y1="67.207" x2="33.8174" y2="77.084" gradientUnits="userSpaceOnUse">
<stop stop-color="#BDA1FF"/>
<stop offset="0.345" stop-color="#9567FE"/>
<stop offset="0.69" stop-color="#A47DFF"/>
<stop offset="1" stop-color="#7A4BE7"/>
</linearGradient>
</defs>
</svg>
