<svg width="65" height="67" viewBox="0 0 65 67" fill="none" xmlns="http://www.w3.org/2000/svg">
<path d="M57.3156 9.68701H7.30937C4.09375 9.68701 1.46875 12.2748 1.46875 15.5261V58.1916C1.46875 61.443 4.09375 64.0308 7.30937 64.0308H57.3156C60.5312 64.0308 63.1562 61.443 63.1562 58.1916V15.5261C63.1562 12.2748 60.5312 9.68701 57.3156 9.68701Z" fill="white"/>
<path d="M57.5647 10.047H8.2496C3.53131 10.047 1.97507 11.1549 1.97507 16.2511V23.0896H63.8392V16.2511C63.8392 11.1549 63.0157 10.047 57.5647 10.047Z" fill="#DCCCFF"/>
<path d="M1.46875 22.5615H63.1563" stroke="url(#paint0_linear_0_3)" stroke-width="2.9375"/>
<path d="M42.8374 33.8663C40.1438 31.0704 35.7087 30.2214 32.139 31.9359C28.5677 30.2214 24.1351 31.0704 21.4407 33.8663C19.754 35.6151 18.873 37.8907 18.9589 40.2694C19.2059 47.4693 29.9427 55.33 31.1667 56.2039C31.7491 56.6192 32.5299 56.6189 33.1116 56.2036C34.3353 55.3301 45.0721 47.4693 45.3191 40.2727C45.405 37.8907 44.524 35.6151 42.8374 33.8663ZM32.139 52.7502C28.7501 50.1326 22.4533 44.4117 22.3077 40.1516C22.2546 38.6859 22.8026 37.2806 23.852 36.1911C25.7717 34.198 28.922 33.8323 31.263 35.2683C31.8012 35.5988 32.4768 35.5988 33.0151 35.2683C35.4289 33.7845 38.5544 34.2507 40.426 36.191C41.4754 37.2805 42.0235 38.6858 41.9703 40.1549C41.8247 44.4117 35.5279 50.1326 32.139 52.7502Z" fill="#B389FF"/>
<path d="M42.8374 33.8663C40.1438 31.0704 35.7087 30.2214 32.139 31.9359C28.5677 30.2214 24.1351 31.0704 21.4407 33.8663C19.754 35.6151 18.873 37.8907 18.9589 40.2694C19.2059 47.4693 29.9427 55.33 31.1667 56.2039C31.7491 56.6192 32.5299 56.6189 33.1116 56.2036C34.3353 55.3301 45.0721 47.4693 45.3191 40.2727C45.405 37.8907 44.524 35.6151 42.8374 33.8663ZM32.139 52.7502C28.7501 50.1326 22.4533 44.4117 22.3077 40.1516C22.2546 38.6859 22.8026 37.2806 23.852 36.1911C25.7717 34.198 28.922 33.8323 31.263 35.2683C31.8012 35.5988 32.4768 35.5988 33.0151 35.2683C35.4289 33.7845 38.5544 34.2507 40.426 36.191C41.4754 37.2805 42.0235 38.6858 41.9703 40.1549C41.8247 44.4117 35.5279 50.1326 32.139 52.7502Z" fill="url(#paint1_linear_0_3)"/>
<rect x="1.46875" y="9.34277" width="61.6875" height="55.8125" rx="3.55691" stroke="#996DFE" stroke-width="2.9375"/>
<rect x="1.46875" y="9.34277" width="61.6875" height="55.8125" rx="3.55691" stroke="url(#paint2_linear_0_3)" stroke-width="2.9375"/>
<rect x="9.84375" y="2" width="8" height="14" rx="4" fill="white" stroke="#996EFE" stroke-width="2.94"/>
<rect x="27.8438" y="2" width="8" height="14" rx="4" fill="white" stroke="#996EFE" stroke-width="2.94"/>
<rect x="45.8438" y="2" width="8" height="14" rx="4" fill="white" stroke="#996EFE" stroke-width="2.94"/>
<defs>
<linearGradient id="paint0_linear_0_3" x1="1.46875" y1="23.0615" x2="63.1562" y2="23.0615" gradientUnits="userSpaceOnUse">
<stop stop-color="#BDA1FF"/>
<stop offset="0.345" stop-color="#9567FE"/>
<stop offset="0.69" stop-color="#A47DFF"/>
<stop offset="1" stop-color="#7A4BE7"/>
</linearGradient>
<linearGradient id="paint1_linear_0_3" x1="18.9532" y1="43.7833" x2="45.3248" y2="43.7833" gradientUnits="userSpaceOnUse">
<stop stop-color="#BDA1FF"/>
<stop offset="0.345" stop-color="#9567FE"/>
<stop offset="0.69" stop-color="#A47DFF"/>
<stop offset="1" stop-color="#7A4BE7"/>
</linearGradient>
<linearGradient id="paint2_linear_0_3" x1="0" y1="37.249" x2="64.625" y2="37.249" gradientUnits="userSpaceOnUse">
<stop stop-color="#BDA1FF"/>
<stop offset="0.345" stop-color="#9567FE"/>
<stop offset="0.69" stop-color="#A47DFF"/>
<stop offset="1" stop-color="#7A4BE7"/>
</linearGradient>
</defs>
</svg>
