<svg width="240" height="69" viewBox="0 0 240 69" fill="none" xmlns="http://www.w3.org/2000/svg">
<path fill-rule="evenodd" clip-rule="evenodd" d="M76.7977 17.6042C80.1601 17.6042 82.8859 14.8784 82.8859 11.516C82.8859 8.15352 80.1601 5.42773 76.7977 5.42773C73.4353 5.42773 70.7095 8.15352 70.7095 11.516C70.7095 11.8825 70.7419 12.2416 70.804 12.5903H70.7046C70.6601 12.9933 70.3185 13.3067 69.9037 13.3067C69.4889 13.3067 69.1473 12.9933 69.1028 12.5903H61.7562V17.246H74.7354C75.3795 17.4778 76.0738 17.6042 76.7977 17.6042Z" fill="white"/>
<path fill-rule="evenodd" clip-rule="evenodd" d="M60.6821 19.3945C57.3197 19.3945 54.5939 22.1203 54.5939 25.4827C54.5939 28.8452 57.3197 31.571 60.6821 31.571C64.0445 31.571 66.7703 28.8452 66.7703 25.4827C66.7703 25.1162 66.7379 24.7571 66.6758 24.4084H66.7751C66.8196 24.0055 67.1612 23.692 67.576 23.692C67.9908 23.692 68.3324 24.0055 68.3769 24.4084H75.7234V19.7527H62.7444C62.1004 19.5209 61.406 19.3945 60.6821 19.3945Z" fill="white"/>
<rect x="70.7095" y="11.1582" width="0.35813" height="2.32785" fill="white"/>
<rect x="66.7701" y="25.8408" width="0.35813" height="2.32785" transform="rotate(180 66.7701 25.8408)" fill="white"/>
<circle cx="61.846" cy="12.6799" r="7.25214" fill="white"/>
<circle cx="75.6336" cy="24.3191" r="7.25214" transform="rotate(180 75.6336 24.3191)" fill="white"/>
<path d="M96.0568 8.2627V15.6564C97.1331 14.5801 98.6306 13.925 100.619 13.925C104.808 13.925 107.124 17.5516 107.124 22.0206V29.6015H101.742V22.0206C101.742 20.102 101.462 18.2536 99.2389 18.2536C97.0161 18.2536 96.1036 20.0084 96.0568 21.8802V29.6015H90.6753V8.2627H96.0568Z" fill="white"/>
<path d="M116.228 13.925C118.334 13.925 119.925 14.6737 121.025 15.8904V14.3929H126.172V29.6015H121.025V28.1041C119.925 29.3208 118.334 30.0695 116.228 30.0695C112.04 30.0695 109.022 26.4428 109.022 21.9972C109.022 17.5282 112.04 13.925 116.228 13.925ZM117.609 25.7877C119.878 25.7877 120.791 23.9393 120.791 22.0206V21.8802C120.744 20.0084 119.808 18.2536 117.609 18.2536C115.386 18.2536 114.403 20.102 114.403 22.0206C114.403 23.9393 115.386 25.7877 117.609 25.7877Z" fill="white"/>
<path d="M144.516 23.4245H133.612C133.987 24.9454 135.016 25.8813 136.467 25.8813C137.707 25.8813 138.643 25.3431 138.924 24.4072H144.563C143.673 27.6595 141.029 30.0929 136.49 30.0929C130.992 30.0929 128.067 26.4896 128.067 22.0206C128.067 17.5282 130.851 13.925 136.35 13.925C141.848 13.925 144.633 17.5282 144.633 22.0206C144.633 22.512 144.586 22.9565 144.516 23.4245ZM136.35 17.9962C134.969 17.9962 134.104 18.8385 133.706 20.0552H138.97C138.573 18.8385 137.73 17.9962 136.35 17.9962Z" fill="white"/>
<path d="M158.301 18.6981H154.604C152.99 18.6981 151.914 19.7744 151.914 21.3889V29.6015H146.532V21.4123C146.532 17.2007 149.34 14.3929 153.552 14.3929H158.301V18.6981Z" fill="white"/>
<path d="M168.035 25.2963H170.492V29.6015H166.398C163.59 29.6015 161.718 27.7297 161.718 24.922V18.6045H159.495V14.2993H161.718V10.4855H167.099V14.2993H170.492V18.6045H167.099V24.3604C167.099 24.922 167.474 25.2963 168.035 25.2963Z" fill="white"/>
<path d="M186.289 29.6015H172.039V25.9983L178.965 18.6981H172.156V14.3929H186.055V18.2302L179.433 25.2963H186.289V29.6015Z" fill="white"/>
<path d="M3.456 64.368C2.93333 64.368 2.416 64.2507 1.904 64.016C1.40267 63.7813 0.976 63.4613 0.624 63.056C0.282667 62.64 0.08 62.176 0.016 61.664L0.832 61.392C0.949333 62.0427 1.264 62.5547 1.776 62.928C2.288 63.3013 2.85867 63.488 3.488 63.488C4.01067 63.488 4.50133 63.3653 4.96 63.12C5.41867 62.864 5.78133 62.5173 6.048 62.08C6.32533 61.6427 6.464 61.152 6.464 60.608C6.464 60.2133 6.34667 59.8773 6.112 59.6C5.888 59.312 5.50933 59.024 4.976 58.736C4.19733 58.32 3.60533 57.984 3.2 57.728C2.79467 57.472 2.45867 57.1733 2.192 56.832C1.936 56.4907 1.808 56.0907 1.808 55.632C1.808 55.0667 1.96267 54.5653 2.272 54.128C2.58133 53.6907 2.98133 53.3547 3.472 53.12C3.97333 52.8747 4.50133 52.752 5.056 52.752C5.67467 52.752 6.19733 52.912 6.624 53.232C7.05067 53.552 7.264 53.952 7.264 54.432C7.264 54.4853 7.25333 54.576 7.232 54.704L6.368 54.592C6.41067 54.2827 6.288 54.048 6 53.888C5.712 53.7173 5.376 53.632 4.992 53.632C4.608 53.632 4.24 53.7173 3.888 53.888C3.54667 54.0587 3.26933 54.288 3.056 54.576C2.84267 54.864 2.736 55.1787 2.736 55.52C2.736 55.9787 2.91733 56.3627 3.28 56.672C3.64267 56.9813 4.15467 57.312 4.816 57.664C5.02933 57.7707 5.24267 57.888 5.456 58.016C6.13867 58.4 6.62933 58.8 6.928 59.216C7.23733 59.6213 7.392 60.0907 7.392 60.624C7.392 60.7093 7.38133 60.8587 7.36 61.072C7.27467 61.712 7.03467 62.2827 6.64 62.784C6.256 63.2853 5.78133 63.6747 5.216 63.952C4.65067 64.2293 4.064 64.368 3.456 64.368ZM10.7233 64.224C10.0726 64.224 9.58192 64.0693 9.25125 63.76C8.92058 63.4507 8.75525 62.9707 8.75525 62.32C8.75525 62.1173 8.77125 61.8987 8.80325 61.664L9.81125 54H10.7393L10.4833 56H12.9153L12.8033 56.864H10.3553L9.71525 61.728C9.69392 61.9627 9.68325 62.1173 9.68325 62.192C9.68325 62.672 9.77925 62.9867 9.97125 63.136C10.1739 63.2853 10.4299 63.36 10.7393 63.36C10.9526 63.36 11.1339 63.344 11.2833 63.312C11.4433 63.28 11.6193 63.2107 11.8113 63.104L12.1793 63.872C11.7846 64.1067 11.2993 64.224 10.7233 64.224ZM12.8395 67.392C13.1062 67.392 13.3568 67.36 13.5915 67.296C13.8368 67.232 14.0395 67.1413 14.1995 67.024C14.3595 66.9387 14.5088 66.8107 14.6475 66.64C14.7862 66.48 14.9035 66.2987 14.9995 66.096L15.8475 64.208L13.5435 55.952H14.5035L16.3595 63.024L19.3355 55.952H20.3115L15.7835 66.416C15.5275 66.992 15.1755 67.4347 14.7275 67.744C14.2368 68.032 13.6288 68.176 12.9035 68.176L12.8395 67.392ZM22.0385 52.384H22.9665L21.4305 64H20.5025L22.0385 52.384ZM24.4367 60.368C24.4047 60.752 24.3887 60.9813 24.3887 61.056C24.3887 61.6853 24.5434 62.2187 24.8527 62.656C25.1621 63.0933 25.7327 63.312 26.5647 63.312C27.0234 63.312 27.4447 63.2533 27.8287 63.136C28.2234 63.008 28.6661 62.8107 29.1567 62.544L29.5087 63.248C29.0607 63.536 28.5754 63.7653 28.0527 63.936C27.5301 64.096 27.0074 64.176 26.4847 64.176C25.5141 64.176 24.7674 63.888 24.2447 63.312C23.7327 62.736 23.4767 61.9573 23.4767 60.976C23.4767 60.7307 23.4927 60.4747 23.5247 60.208C23.6207 59.4613 23.8447 58.7573 24.1967 58.096C24.5487 57.4347 25.0074 56.9013 25.5727 56.496C26.1487 56.08 26.7941 55.872 27.5087 55.872C28.0634 55.872 28.5541 56 28.9807 56.256C29.4181 56.5013 29.7594 56.848 30.0047 57.296C30.2501 57.7333 30.3727 58.2293 30.3727 58.784C30.3727 58.88 30.3621 59.0347 30.3407 59.248C30.3087 59.472 30.2607 59.712 30.1967 59.968C30.1861 60.032 30.1594 60.1653 30.1167 60.368H24.4367ZM29.3647 59.44L29.4287 59.104C29.4394 59.0293 29.4447 58.9173 29.4447 58.768C29.4447 58.1813 29.2581 57.696 28.8847 57.312C28.5114 56.928 28.0367 56.736 27.4607 56.736C26.8207 56.736 26.2394 56.9813 25.7167 57.472C25.1941 57.952 24.8207 58.6293 24.5967 59.504L29.3647 59.44ZM39.6884 53.952H36.0564L36.1844 53.056H44.3764L44.2644 53.952H40.6324L39.3044 64H38.3764L39.6884 53.952ZM46.8271 52.384L46.1871 57.152C46.5711 56.704 46.9818 56.3733 47.4191 56.16C47.8671 55.9467 48.3685 55.84 48.9231 55.84C49.6698 55.84 50.2298 56.0267 50.6031 56.4C50.9765 56.7627 51.1631 57.28 51.1631 57.952C51.1631 58.048 51.1525 58.224 51.1311 58.48L50.4111 64H49.4671L50.1871 58.592C50.2085 58.4 50.2191 58.2613 50.2191 58.176C50.2191 57.7173 50.1018 57.3653 49.8671 57.12C49.6325 56.864 49.2751 56.736 48.7951 56.736C48.2938 56.736 47.8245 56.8747 47.3871 57.152C46.9605 57.4187 46.5178 57.8187 46.0591 58.352L45.2911 64H44.3631L45.8991 52.384H46.8271ZM55.2497 64.16C54.3111 64.16 53.5911 63.8453 53.0897 63.216C52.5884 62.576 52.3377 61.7653 52.3377 60.784C52.3377 60.528 52.3537 60.272 52.3857 60.016C52.4924 59.2053 52.7377 58.4853 53.1217 57.856C53.5164 57.2267 54.0231 56.7413 54.6417 56.4C55.2604 56.048 55.9537 55.872 56.7217 55.872C57.2977 55.872 57.9217 55.92 58.5937 56.016H59.5377L58.7857 61.728C58.7644 61.984 58.7537 62.1707 58.7537 62.288C58.7537 62.8533 58.8817 63.296 59.1377 63.616L58.4977 64.112C58.3057 63.9307 58.1404 63.6853 58.0017 63.376C57.8631 63.056 57.8044 62.8107 57.8257 62.64C57.5164 63.088 57.1271 63.456 56.6577 63.744C56.1991 64.0213 55.7297 64.16 55.2497 64.16ZM55.2977 63.296C55.7884 63.296 56.2311 63.1787 56.6257 62.944C57.0311 62.6987 57.3511 62.3733 57.5857 61.968C57.7991 61.6587 57.9217 61.3227 57.9537 60.96L58.5297 56.8L57.5697 56.768L56.6417 56.736C55.7244 56.736 54.9724 57.0507 54.3857 57.68C53.7991 58.2987 53.4417 59.0987 53.3137 60.08C53.2817 60.3147 53.2657 60.544 53.2657 60.768C53.2657 61.504 53.4364 62.112 53.7777 62.592C54.1191 63.0613 54.6257 63.296 55.2977 63.296ZM62.8195 64.224C62.1688 64.224 61.6782 64.0693 61.3475 63.76C61.0168 63.4507 60.8515 62.9707 60.8515 62.32C60.8515 62.1173 60.8675 61.8987 60.8995 61.664L61.9075 54H62.8355L62.5795 56H65.0115L64.8995 56.864H62.4515L61.8115 61.728C61.7902 61.9627 61.7795 62.1173 61.7795 62.192C61.7795 62.672 61.8755 62.9867 62.0675 63.136C62.2702 63.2853 62.5262 63.36 62.8355 63.36C63.0488 63.36 63.2302 63.344 63.3795 63.312C63.5395 63.28 63.7155 63.2107 63.9075 63.104L64.2755 63.872C63.8808 64.1067 63.3955 64.224 62.8195 64.224ZM72.6391 64.368C72.1165 64.368 71.5991 64.2507 71.0871 64.016C70.5858 63.7813 70.1591 63.4613 69.8071 63.056C69.4658 62.64 69.2631 62.176 69.1991 61.664L70.0151 61.392C70.1325 62.0427 70.4471 62.5547 70.9591 62.928C71.4711 63.3013 72.0418 63.488 72.6711 63.488C73.1938 63.488 73.6845 63.3653 74.1431 63.12C74.6018 62.864 74.9645 62.5173 75.2311 62.08C75.5085 61.6427 75.6471 61.152 75.6471 60.608C75.6471 60.2133 75.5298 59.8773 75.2951 59.6C75.0711 59.312 74.6925 59.024 74.1591 58.736C73.3805 58.32 72.7885 57.984 72.3831 57.728C71.9778 57.472 71.6418 57.1733 71.3751 56.832C71.1191 56.4907 70.9911 56.0907 70.9911 55.632C70.9911 55.0667 71.1458 54.5653 71.4551 54.128C71.7645 53.6907 72.1645 53.3547 72.6551 53.12C73.1565 52.8747 73.6845 52.752 74.2391 52.752C74.8578 52.752 75.3805 52.912 75.8071 53.232C76.2338 53.552 76.4471 53.952 76.4471 54.432C76.4471 54.4853 76.4365 54.576 76.4151 54.704L75.5511 54.592C75.5938 54.2827 75.4711 54.048 75.1831 53.888C74.8951 53.7173 74.5591 53.632 74.1751 53.632C73.7911 53.632 73.4231 53.7173 73.0711 53.888C72.7298 54.0587 72.4525 54.288 72.2391 54.576C72.0258 54.864 71.9191 55.1787 71.9191 55.52C71.9191 55.9787 72.1005 56.3627 72.4631 56.672C72.8258 56.9813 73.3378 57.312 73.9991 57.664C74.2125 57.7707 74.4258 57.888 74.6391 58.016C75.3218 58.4 75.8125 58.8 76.1111 59.216C76.4205 59.6213 76.5751 60.0907 76.5751 60.624C76.5751 60.7093 76.5645 60.8587 76.5431 61.072C76.4578 61.712 76.2178 62.2827 75.8231 62.784C75.4391 63.2853 74.9645 63.6747 74.3991 63.952C73.8338 64.2293 73.2471 64.368 72.6391 64.368ZM81.7859 55.872C82.7245 55.872 83.4392 56.1813 83.9299 56.8C84.4312 57.4187 84.6819 58.2187 84.6819 59.2C84.6819 59.3813 84.6605 59.6533 84.6179 60.016C84.4579 61.2533 83.9939 62.256 83.2259 63.024C82.4685 63.7813 81.5032 64.16 80.3299 64.16C80.0419 64.16 79.4285 64.0907 78.4899 63.952L77.9139 68.16H77.0339L78.3299 58.336C78.3619 58.1227 78.3779 57.9307 78.3779 57.76C78.3779 57.216 78.2285 56.7947 77.9299 56.496L78.6019 55.888C78.7619 56.016 78.9059 56.192 79.0339 56.416C79.1725 56.64 79.2632 56.88 79.3059 57.136C79.8499 56.2933 80.6765 55.872 81.7859 55.872ZM80.2819 63.296C81.2632 63.296 82.0419 63.0027 82.6179 62.416C83.2045 61.8187 83.5619 61.0133 83.6899 60C83.7219 59.744 83.7379 59.4987 83.7379 59.264C83.7379 58.5067 83.5725 57.8987 83.2419 57.44C82.9112 56.9707 82.4312 56.736 81.8019 56.736C81.1939 56.736 80.6285 56.928 80.1059 57.312C79.5939 57.696 79.2739 58.1867 79.1459 58.784L78.5539 63.152C79.4925 63.248 80.0685 63.296 80.2819 63.296ZM86.5567 60.368C86.5247 60.752 86.5087 60.9813 86.5087 61.056C86.5087 61.6853 86.6634 62.2187 86.9727 62.656C87.2821 63.0933 87.8527 63.312 88.6847 63.312C89.1434 63.312 89.5647 63.2533 89.9487 63.136C90.3434 63.008 90.7861 62.8107 91.2767 62.544L91.6287 63.248C91.1807 63.536 90.6954 63.7653 90.1727 63.936C89.6501 64.096 89.1274 64.176 88.6047 64.176C87.6341 64.176 86.8874 63.888 86.3647 63.312C85.8527 62.736 85.5967 61.9573 85.5967 60.976C85.5967 60.7307 85.6127 60.4747 85.6447 60.208C85.7407 59.4613 85.9647 58.7573 86.3167 58.096C86.6687 57.4347 87.1274 56.9013 87.6927 56.496C88.2687 56.08 88.9141 55.872 89.6287 55.872C90.1834 55.872 90.6741 56 91.1007 56.256C91.5381 56.5013 91.8794 56.848 92.1247 57.296C92.3701 57.7333 92.4927 58.2293 92.4927 58.784C92.4927 58.88 92.4821 59.0347 92.4607 59.248C92.4287 59.472 92.3807 59.712 92.3167 59.968C92.3061 60.032 92.2794 60.1653 92.2367 60.368H86.5567ZM91.4847 59.44L91.5487 59.104C91.5594 59.0293 91.5647 58.9173 91.5647 58.768C91.5647 58.1813 91.3781 57.696 91.0047 57.312C90.6314 56.928 90.1567 56.736 89.5807 56.736C88.9407 56.736 88.3594 56.9813 87.8367 57.472C87.3141 57.952 86.9407 58.6293 86.7167 59.504L91.4847 59.44ZM96.361 64.16C95.4223 64.16 94.7023 63.8453 94.201 63.216C93.6997 62.576 93.449 61.7653 93.449 60.784C93.449 60.528 93.465 60.272 93.497 60.016C93.6037 59.2053 93.849 58.4853 94.233 57.856C94.6277 57.2267 95.1343 56.7413 95.753 56.4C96.3717 56.048 97.065 55.872 97.833 55.872C98.409 55.872 99.033 55.92 99.705 56.016H100.649L99.897 61.728C99.8757 61.984 99.865 62.1707 99.865 62.288C99.865 62.8533 99.993 63.296 100.249 63.616L99.609 64.112C99.417 63.9307 99.2517 63.6853 99.113 63.376C98.9743 63.056 98.9157 62.8107 98.937 62.64C98.6277 63.088 98.2383 63.456 97.769 63.744C97.3103 64.0213 96.841 64.16 96.361 64.16ZM96.409 63.296C96.8997 63.296 97.3423 63.1787 97.737 62.944C98.1423 62.6987 98.4623 62.3733 98.697 61.968C98.9103 61.6587 99.033 61.3227 99.065 60.96L99.641 56.8L98.681 56.768L97.753 56.736C96.8357 56.736 96.0837 57.0507 95.497 57.68C94.9103 58.2987 94.553 59.0987 94.425 60.08C94.393 60.3147 94.377 60.544 94.377 60.768C94.377 61.504 94.5477 62.112 94.889 62.592C95.2303 63.0613 95.737 63.296 96.409 63.296ZM108.139 64H107.147L105.067 60.384C104.885 60.128 104.528 60 103.995 60H103.275L102.747 64H101.819L103.355 52.384H104.283L103.403 59.136H103.931C104.261 59.136 104.539 59.1253 104.763 59.104C104.997 59.072 105.2 59.0133 105.371 58.928C105.755 58.7467 106.107 58.448 106.427 58.032C106.757 57.616 107.019 57.2 107.211 56.784C107.413 56.3573 107.525 56.064 107.547 55.904L108.395 55.968C108.341 56.3307 108.155 56.7893 107.835 57.344C107.525 57.8987 107.168 58.4053 106.763 58.864C106.368 59.312 106.016 59.584 105.707 59.68L108.139 64ZM111.471 64.192C110.895 64.192 110.383 64.08 109.935 63.856C109.487 63.632 109.071 63.3227 108.687 62.928L109.263 62.32C109.605 62.64 109.951 62.8907 110.303 63.072C110.666 63.2427 111.071 63.328 111.519 63.328C112.138 63.328 112.634 63.168 113.007 62.848C113.381 62.5173 113.567 62.08 113.567 61.536C113.567 61.3013 113.503 61.1093 113.375 60.96C113.247 60.8 113.082 60.672 112.879 60.576C112.687 60.4693 112.33 60.2933 111.807 60.048C111.327 59.8347 110.949 59.6533 110.671 59.504C110.405 59.344 110.191 59.152 110.031 58.928C109.871 58.704 109.791 58.432 109.791 58.112C109.791 57.984 109.797 57.888 109.807 57.824C109.882 57.2053 110.154 56.7147 110.623 56.352C111.103 55.9787 111.701 55.792 112.415 55.792C112.799 55.792 113.167 55.8507 113.519 55.968C113.882 56.0747 114.181 56.2293 114.415 56.432L113.967 57.088C113.562 56.8 113.05 56.656 112.431 56.656C111.898 56.656 111.482 56.7733 111.183 57.008C110.885 57.2427 110.735 57.568 110.735 57.984C110.735 58.1973 110.799 58.3787 110.927 58.528C111.055 58.6667 111.205 58.784 111.375 58.88C111.557 58.9653 111.887 59.12 112.367 59.344C113.125 59.6747 113.669 59.9893 113.999 60.288C114.341 60.576 114.511 60.9707 114.511 61.472C114.511 61.6213 114.506 61.7333 114.495 61.808C114.399 62.5333 114.074 63.1147 113.519 63.552C112.975 63.9787 112.293 64.192 111.471 64.192ZM115 65.056C115.246 64.8213 115.416 64.5973 115.512 64.384C115.576 64.256 115.614 64.112 115.624 63.952C115.646 63.7813 115.656 63.616 115.656 63.456C115.667 63.296 115.672 63.184 115.672 63.12C115.683 62.9707 115.736 62.8533 115.832 62.768C115.928 62.6827 116.051 62.64 116.2 62.64C116.371 62.64 116.494 62.6987 116.568 62.816C116.654 62.9333 116.686 63.0667 116.664 63.216C116.622 63.568 116.574 63.856 116.52 64.08C116.467 64.304 116.392 64.5173 116.296 64.72C116.115 65.04 115.822 65.3387 115.416 65.616L115 65.056ZM129.189 58.304C129.605 58.5813 129.931 58.9227 130.165 59.328C130.4 59.7227 130.517 60.1707 130.517 60.672C130.517 61.3973 130.304 62.064 129.877 62.672C129.451 63.2693 128.848 63.696 128.069 63.952C127.579 64.0907 126.965 64.16 126.229 64.16C125.12 64.16 124.341 64.1333 123.893 64.08L123.077 63.984L124.533 52.88H127.925C128.384 52.88 128.795 52.9547 129.157 53.104C129.659 53.296 130.043 53.5893 130.309 53.984C130.587 54.3787 130.725 54.8427 130.725 55.376C130.725 55.952 130.608 56.4693 130.373 56.928C130.139 57.376 129.776 57.7173 129.285 57.952L128.757 58.128C128.992 58.1813 129.136 58.24 129.189 58.304ZM125.349 53.776L124.821 57.76H127.269C127.995 57.76 128.597 57.5467 129.077 57.12C129.568 56.6827 129.813 56.08 129.813 55.312C129.813 54.8427 129.664 54.48 129.365 54.224C129.067 53.968 128.635 53.8187 128.069 53.776H125.349ZM126.405 63.28C127.291 63.28 128.011 63.0827 128.565 62.688C129.131 62.2933 129.467 61.728 129.573 60.992C129.595 60.8213 129.605 60.6987 129.605 60.624C129.605 60.0267 129.408 59.5467 129.013 59.184C128.619 58.8213 128.048 58.64 127.301 58.64H124.709L124.101 63.2L125.397 63.248L126.405 63.28ZM132.582 60.368C132.55 60.752 132.534 60.9813 132.534 61.056C132.534 61.6853 132.689 62.2187 132.998 62.656C133.308 63.0933 133.878 63.312 134.71 63.312C135.169 63.312 135.59 63.2533 135.974 63.136C136.369 63.008 136.812 62.8107 137.302 62.544L137.654 63.248C137.206 63.536 136.721 63.7653 136.198 63.936C135.676 64.096 135.153 64.176 134.63 64.176C133.66 64.176 132.913 63.888 132.39 63.312C131.878 62.736 131.622 61.9573 131.622 60.976C131.622 60.7307 131.638 60.4747 131.67 60.208C131.766 59.4613 131.99 58.7573 132.342 58.096C132.694 57.4347 133.153 56.9013 133.718 56.496C134.294 56.08 134.94 55.872 135.654 55.872C136.209 55.872 136.7 56 137.126 56.256C137.564 56.5013 137.905 56.848 138.15 57.296C138.396 57.7333 138.518 58.2293 138.518 58.784C138.518 58.88 138.508 59.0347 138.486 59.248C138.454 59.472 138.406 59.712 138.342 59.968C138.332 60.032 138.305 60.1653 138.262 60.368H132.582ZM137.51 59.44L137.574 59.104C137.585 59.0293 137.59 58.9173 137.59 58.768C137.59 58.1813 137.404 57.696 137.03 57.312C136.657 56.928 136.182 56.736 135.606 56.736C134.966 56.736 134.385 56.9813 133.862 57.472C133.34 57.952 132.966 58.6293 132.742 59.504L137.51 59.44ZM142.387 64.16C141.448 64.16 140.728 63.8453 140.227 63.216C139.725 62.576 139.475 61.7653 139.475 60.784C139.475 60.528 139.491 60.272 139.523 60.016C139.629 59.2053 139.875 58.4853 140.259 57.856C140.653 57.2267 141.16 56.7413 141.779 56.4C142.397 56.048 143.091 55.872 143.859 55.872C144.435 55.872 145.059 55.92 145.731 56.016H146.675L145.923 61.728C145.901 61.984 145.891 62.1707 145.891 62.288C145.891 62.8533 146.019 63.296 146.275 63.616L145.635 64.112C145.443 63.9307 145.277 63.6853 145.139 63.376C145 63.056 144.941 62.8107 144.963 62.64C144.653 63.088 144.264 63.456 143.795 63.744C143.336 64.0213 142.867 64.16 142.387 64.16ZM142.435 63.296C142.925 63.296 143.368 63.1787 143.763 62.944C144.168 62.6987 144.488 62.3733 144.723 61.968C144.936 61.6587 145.059 61.3227 145.091 60.96L145.667 56.8L144.707 56.768L143.779 56.736C142.861 56.736 142.109 57.0507 141.523 57.68C140.936 58.2987 140.579 59.0987 140.451 60.08C140.419 60.3147 140.403 60.544 140.403 60.768C140.403 61.504 140.573 62.112 140.915 62.592C141.256 63.0613 141.763 63.296 142.435 63.296ZM150.356 64.128C149.578 64.128 148.986 63.9467 148.58 63.584C148.175 63.2213 147.972 62.6987 147.972 62.016C147.972 61.792 147.983 61.6213 148.004 61.504L148.724 56H149.668L148.948 61.392C148.927 61.6053 148.916 61.76 148.916 61.856C148.916 62.304 149.034 62.6507 149.268 62.896C149.503 63.1413 149.892 63.264 150.436 63.264C150.98 63.264 151.45 63.1253 151.844 62.848C152.25 62.5707 152.687 62.1547 153.156 61.6L153.892 56H154.836L154.084 61.68C154.063 61.808 154.052 61.9947 154.052 62.24C154.052 62.7947 154.18 63.232 154.436 63.552L153.812 64.096C153.61 63.9253 153.45 63.7013 153.332 63.424C153.215 63.1467 153.151 62.88 153.14 62.624C152.724 63.168 152.292 63.5573 151.844 63.792C151.396 64.016 150.9 64.128 150.356 64.128ZM158.152 64.224C157.501 64.224 157.011 64.0693 156.68 63.76C156.349 63.4507 156.184 62.9707 156.184 62.32C156.184 62.1173 156.2 61.8987 156.232 61.664L157.24 54H158.168L157.912 56H160.344L160.232 56.864H157.784L157.144 61.728C157.123 61.9627 157.112 62.1173 157.112 62.192C157.112 62.672 157.208 62.9867 157.4 63.136C157.603 63.2853 157.859 63.36 158.168 63.36C158.381 63.36 158.563 63.344 158.712 63.312C158.872 63.28 159.048 63.2107 159.24 63.104L159.608 63.872C159.213 64.1067 158.728 64.224 158.152 64.224ZM160.268 67.392C160.535 67.392 160.786 67.36 161.02 67.296C161.266 67.232 161.468 67.1413 161.628 67.024C161.788 66.9387 161.938 66.8107 162.076 66.64C162.215 66.48 162.332 66.2987 162.428 66.096L163.276 64.208L160.972 55.952H161.932L163.788 63.024L166.764 55.952H167.74L163.212 66.416C162.956 66.992 162.604 67.4347 162.156 67.744C161.666 68.032 161.058 68.176 160.332 68.176L160.268 67.392ZM176.195 53.952H172.563L172.691 53.056H180.883L180.771 53.952H177.139L175.811 64H174.883L176.195 53.952ZM183.333 52.384L182.693 57.152C183.077 56.704 183.488 56.3733 183.925 56.16C184.373 55.9467 184.875 55.84 185.429 55.84C186.176 55.84 186.736 56.0267 187.109 56.4C187.483 56.7627 187.669 57.28 187.669 57.952C187.669 58.048 187.659 58.224 187.637 58.48L186.917 64H185.973L186.693 58.592C186.715 58.4 186.725 58.2613 186.725 58.176C186.725 57.7173 186.608 57.3653 186.373 57.12C186.139 56.864 185.781 56.736 185.301 56.736C184.8 56.736 184.331 56.8747 183.893 57.152C183.467 57.4187 183.024 57.8187 182.565 58.352L181.797 64H180.869L182.405 52.384H183.333ZM191.756 64.16C190.817 64.16 190.097 63.8453 189.596 63.216C189.095 62.576 188.844 61.7653 188.844 60.784C188.844 60.528 188.86 60.272 188.892 60.016C188.999 59.2053 189.244 58.4853 189.628 57.856C190.023 57.2267 190.529 56.7413 191.148 56.4C191.767 56.048 192.46 55.872 193.228 55.872C193.804 55.872 194.428 55.92 195.1 56.016H196.044L195.292 61.728C195.271 61.984 195.26 62.1707 195.26 62.288C195.26 62.8533 195.388 63.296 195.644 63.616L195.004 64.112C194.812 63.9307 194.647 63.6853 194.508 63.376C194.369 63.056 194.311 62.8107 194.332 62.64C194.023 63.088 193.633 63.456 193.164 63.744C192.705 64.0213 192.236 64.16 191.756 64.16ZM191.804 63.296C192.295 63.296 192.737 63.1787 193.132 62.944C193.537 62.6987 193.857 62.3733 194.092 61.968C194.305 61.6587 194.428 61.3227 194.46 60.96L195.036 56.8L194.076 56.768L193.148 56.736C192.231 56.736 191.479 57.0507 190.892 57.68C190.305 58.2987 189.948 59.0987 189.82 60.08C189.788 60.3147 189.772 60.544 189.772 60.768C189.772 61.504 189.943 62.112 190.284 62.592C190.625 63.0613 191.132 63.296 191.804 63.296ZM199.326 64.224C198.675 64.224 198.184 64.0693 197.854 63.76C197.523 63.4507 197.358 62.9707 197.358 62.32C197.358 62.1173 197.374 61.8987 197.406 61.664L198.414 54H199.342L199.086 56H201.518L201.406 56.864H198.958L198.318 61.728C198.296 61.9627 198.286 62.1173 198.286 62.192C198.286 62.672 198.382 62.9867 198.574 63.136C198.776 63.2853 199.032 63.36 199.342 63.36C199.555 63.36 199.736 63.344 199.886 63.312C200.046 63.28 200.222 63.2107 200.414 63.104L200.782 63.872C200.387 64.1067 199.902 64.224 199.326 64.224ZM207.849 53.056H208.777L207.449 63.104H212.841L212.713 64H206.409L207.849 53.056ZM216.492 64.16C215.553 64.16 214.833 63.8453 214.332 63.216C213.83 62.576 213.58 61.7653 213.58 60.784C213.58 60.528 213.596 60.272 213.628 60.016C213.734 59.2053 213.98 58.4853 214.364 57.856C214.758 57.2267 215.265 56.7413 215.884 56.4C216.502 56.048 217.196 55.872 217.964 55.872C218.54 55.872 219.164 55.92 219.836 56.016H220.78L220.028 61.728C220.006 61.984 219.996 62.1707 219.996 62.288C219.996 62.8533 220.124 63.296 220.38 63.616L219.74 64.112C219.548 63.9307 219.382 63.6853 219.244 63.376C219.105 63.056 219.046 62.8107 219.068 62.64C218.758 63.088 218.369 63.456 217.9 63.744C217.441 64.0213 216.972 64.16 216.492 64.16ZM216.54 63.296C217.03 63.296 217.473 63.1787 217.868 62.944C218.273 62.6987 218.593 62.3733 218.828 61.968C219.041 61.6587 219.164 61.3227 219.196 60.96L219.772 56.8L218.812 56.768L217.884 56.736C216.966 56.736 216.214 57.0507 215.628 57.68C215.041 58.2987 214.684 59.0987 214.556 60.08C214.524 60.3147 214.508 60.544 214.508 60.768C214.508 61.504 214.678 62.112 215.02 62.592C215.361 63.0613 215.868 63.296 216.54 63.296ZM224.109 64.192C223.533 64.192 223.021 64.08 222.573 63.856C222.125 63.632 221.709 63.3227 221.325 62.928L221.901 62.32C222.243 62.64 222.589 62.8907 222.941 63.072C223.304 63.2427 223.709 63.328 224.157 63.328C224.776 63.328 225.272 63.168 225.645 62.848C226.019 62.5173 226.205 62.08 226.205 61.536C226.205 61.3013 226.141 61.1093 226.013 60.96C225.885 60.8 225.72 60.672 225.517 60.576C225.325 60.4693 224.968 60.2933 224.445 60.048C223.965 59.8347 223.587 59.6533 223.309 59.504C223.043 59.344 222.829 59.152 222.669 58.928C222.509 58.704 222.429 58.432 222.429 58.112C222.429 57.984 222.435 57.888 222.445 57.824C222.52 57.2053 222.792 56.7147 223.261 56.352C223.741 55.9787 224.339 55.792 225.053 55.792C225.437 55.792 225.805 55.8507 226.157 55.968C226.52 56.0747 226.819 56.2293 227.053 56.432L226.605 57.088C226.2 56.8 225.688 56.656 225.069 56.656C224.536 56.656 224.12 56.7733 223.821 57.008C223.523 57.2427 223.373 57.568 223.373 57.984C223.373 58.1973 223.437 58.3787 223.565 58.528C223.693 58.6667 223.843 58.784 224.013 58.88C224.195 58.9653 224.525 59.12 225.005 59.344C225.763 59.6747 226.307 59.9893 226.637 60.288C226.979 60.576 227.149 60.9707 227.149 61.472C227.149 61.6213 227.144 61.7333 227.133 61.808C227.037 62.5333 226.712 63.1147 226.157 63.552C225.613 63.9787 224.931 64.192 224.109 64.192ZM230.335 64.224C229.684 64.224 229.194 64.0693 228.863 63.76C228.532 63.4507 228.367 62.9707 228.367 62.32C228.367 62.1173 228.383 61.8987 228.415 61.664L229.423 54H230.351L230.095 56H232.527L232.415 56.864H229.967L229.327 61.728C229.306 61.9627 229.295 62.1173 229.295 62.192C229.295 62.672 229.391 62.9867 229.583 63.136C229.786 63.2853 230.042 63.36 230.351 63.36C230.564 63.36 230.746 63.344 230.895 63.312C231.055 63.28 231.231 63.2107 231.423 63.104L231.791 63.872C231.396 64.1067 230.911 64.224 230.335 64.224ZM235.219 64.192C234.643 64.192 234.131 64.08 233.683 63.856C233.235 63.632 232.819 63.3227 232.435 62.928L233.011 62.32C233.353 62.64 233.699 62.8907 234.051 63.072C234.414 63.2427 234.819 63.328 235.267 63.328C235.886 63.328 236.382 63.168 236.755 62.848C237.129 62.5173 237.315 62.08 237.315 61.536C237.315 61.3013 237.251 61.1093 237.123 60.96C236.995 60.8 236.83 60.672 236.627 60.576C236.435 60.4693 236.078 60.2933 235.555 60.048C235.075 59.8347 234.697 59.6533 234.419 59.504C234.153 59.344 233.939 59.152 233.779 58.928C233.619 58.704 233.539 58.432 233.539 58.112C233.539 57.984 233.545 57.888 233.555 57.824C233.63 57.2053 233.902 56.7147 234.371 56.352C234.851 55.9787 235.449 55.792 236.163 55.792C236.547 55.792 236.915 55.8507 237.267 55.968C237.63 56.0747 237.929 56.2293 238.163 56.432L237.715 57.088C237.31 56.8 236.798 56.656 236.179 56.656C235.646 56.656 235.23 56.7733 234.931 57.008C234.633 57.2427 234.483 57.568 234.483 57.984C234.483 58.1973 234.547 58.3787 234.675 58.528C234.803 58.6667 234.953 58.784 235.123 58.88C235.305 58.9653 235.635 59.12 236.115 59.344C236.873 59.6747 237.417 59.9893 237.747 60.288C238.089 60.576 238.259 60.9707 238.259 61.472C238.259 61.6213 238.254 61.7333 238.243 61.808C238.147 62.5333 237.822 63.1147 237.267 63.552C236.723 63.9787 236.041 64.192 235.219 64.192Z" fill="white"/>
</svg>
