<svg width="72" height="72" viewBox="0 0 72 72" fill="none" xmlns="http://www.w3.org/2000/svg">
<path fill-rule="evenodd" clip-rule="evenodd" d="M52.5306 34.1633C59.4285 34.1633 65.0204 28.5714 65.0204 21.6735C65.0204 14.7755 59.4285 9.18366 52.5306 9.18366C45.6327 9.18366 40.0408 14.7755 40.0408 21.6735C40.0408 22.4255 40.1073 23.1621 40.2346 23.8775H40.0307C39.9394 24.7041 39.2386 25.3469 38.3878 25.3469C37.5369 25.3469 36.8362 24.7041 36.7448 23.8775H21.6735V33.4286H48.3C49.6212 33.9041 51.0456 34.1633 52.5306 34.1633Z" fill="#732CF5"/>
<path fill-rule="evenodd" clip-rule="evenodd" d="M19.4694 37.8367C12.5715 37.8367 6.97961 43.4286 6.97961 50.3265C6.97961 57.2245 12.5715 62.8163 19.4694 62.8163C26.3673 62.8163 31.9592 57.2245 31.9592 50.3265C31.9592 49.5745 31.8927 48.8379 31.7653 48.1225H31.9693C32.0606 47.2959 32.7614 46.6531 33.6122 46.6531C34.4631 46.6531 35.1639 47.2959 35.2552 48.1225H50.3265V38.5714H23.7C22.3788 38.0959 20.9544 37.8367 19.4694 37.8367Z" fill="#732CF5"/>
<rect x="40.0408" y="20.9388" width="0.734694" height="4.77551" fill="#732CF5"/>
<rect x="31.9592" y="51.0612" width="0.734694" height="4.77551" transform="rotate(180 31.9592 51.0612)" fill="#732CF5"/>
<circle cx="21.8572" cy="24.0612" r="14.8776" fill="#732CF5"/>
<circle cx="21.8572" cy="24.0612" r="14.8776" fill="url(#paint0_linear_4_175)"/>
<circle cx="50.1428" cy="47.9388" r="14.8776" transform="rotate(180 50.1428 47.9388)" fill="#732CF5"/>
<circle cx="50.1428" cy="47.9388" r="14.8776" transform="rotate(180 50.1428 47.9388)" fill="url(#paint1_linear_4_175)"/>
<defs>
<linearGradient id="paint0_linear_4_175" x1="21.8572" y1="9.18366" x2="21.8572" y2="38.9388" gradientUnits="userSpaceOnUse">
<stop stop-color="#732CF5"/>
<stop offset="1" stop-color="#431A8F"/>
</linearGradient>
<linearGradient id="paint1_linear_4_175" x1="50.1428" y1="33.0612" x2="50.1428" y2="62.8163" gradientUnits="userSpaceOnUse">
<stop stop-color="#732CF5"/>
<stop offset="1" stop-color="#431A8F"/>
</linearGradient>
</defs>
</svg>
