<svg width="17" height="16" viewBox="0 0 17 16" fill="none" xmlns="http://www.w3.org/2000/svg">
<g id="Icon/GNB/Outline/Chat">
<path id="Layer 2" d="M5.89279 12.372C5.89279 12.0869 5.69216 11.8411 5.41283 11.7841C4.33906 11.5648 3.36285 10.9073 2.68547 9.92011C2.00724 8.93163 1.6832 7.69026 1.78697 6.44067C1.89073 5.19116 2.41316 4.04063 3.23701 3.21067C4.05926 2.38232 5.12035 1.93348 6.20945 1.93337C6.20947 1.93337 6.20949 1.93337 6.2095 1.93337H10.793C11.9508 1.93337 13.0747 2.44056 13.9133 3.36628C14.7537 4.29397 15.2346 5.56382 15.2346 6.89884C15.2346 8.23385 14.7537 9.5037 13.9133 10.4314C13.0747 11.3571 11.9508 11.8643 10.793 11.8643H9.41777C9.28867 11.8643 9.16302 11.9059 9.05947 11.983L6.49946 13.8889C6.46816 13.9122 6.4392 13.9385 6.413 13.9674C6.36419 14.0214 6.30947 14.0503 6.25964 14.0612C6.21052 14.072 6.15883 14.0672 6.10819 14.044C6.05651 14.0204 6.00264 13.9758 5.96057 13.9063C5.91826 13.8364 5.89279 13.7487 5.89279 13.6548V13.6548V12.372Z" stroke="#808080" stroke-width="1.2" stroke-linejoin="round"/>
<g id="Group 76">
<circle id="Ellipse 49" cx="8.5" cy="6.89062" r="1" fill="#808080"/>
<circle id="Ellipse 51" cx="11.5" cy="6.89062" r="1" fill="#808080"/>
<circle id="Ellipse 50" cx="5.5" cy="6.89062" r="1" fill="#808080"/>
</g>
</g>
</svg>
