<svg width="17" height="16" viewBox="0 0 17 16" fill="none" xmlns="http://www.w3.org/2000/svg">
<g id="check" clip-path="url(#clip0_348_2180)">
<path id="Vector" d="M8.49967 1.33337C4.81967 1.33337 1.83301 4.32004 1.83301 8.00004C1.83301 11.68 4.81967 14.6667 8.49967 14.6667C12.1797 14.6667 15.1663 11.68 15.1663 8.00004C15.1663 4.32004 12.1797 1.33337 8.49967 1.33337ZM8.49967 13.3334C5.55967 13.3334 3.16634 10.94 3.16634 8.00004C3.16634 5.06004 5.55967 2.66671 8.49967 2.66671C11.4397 2.66671 13.833 5.06004 13.833 8.00004C13.833 10.94 11.4397 13.3334 8.49967 13.3334ZM11.0863 5.52671L7.16634 9.44671L5.91301 8.19337C5.65301 7.93337 5.23301 7.93337 4.97301 8.19337C4.71301 8.45337 4.71301 8.87337 4.97301 9.13337L6.69967 10.86C6.95967 11.12 7.37967 11.12 7.63967 10.86L12.033 6.46671C12.293 6.20671 12.293 5.78671 12.033 5.52671C11.773 5.26671 11.3463 5.26671 11.0863 5.52671Z" fill="#808080"/>
</g>
<defs>
<clipPath id="clip0_348_2180">
<rect width="16" height="16" fill="white" transform="translate(0.5)"/>
</clipPath>
</defs>
</svg>
