<svg width="24" height="24" viewBox="0 0 24 24" fill="none" xmlns="http://www.w3.org/2000/svg">
<path d="M4.00002 9.5V17C3.66669 18 4.70002 20 11.5 20C18.3 20 19.5 19 19.5 16.5V11L19 8.5L12.5 3.5H11L5.00002 7.5L4.00002 9.5Z" fill="white"/>
<path d="M17.7808 20.2187C17.7808 20.0114 17.679 19.8127 17.4979 19.6662C17.3168 19.5196 17.0711 19.4373 16.8149 19.4373H8.29527C7.27061 19.4373 6.28791 19.108 5.56337 18.5219C4.83882 17.9358 4.43177 17.1409 4.43177 16.312V10.3333C4.43038 9.92272 4.52967 9.51598 4.72389 9.13663C4.91812 8.75728 5.20342 8.41286 5.5633 8.1233L8.83616 5.47612C9.56059 4.89095 10.5423 4.56208 11.5661 4.56164C12.5898 4.5612 13.572 4.88923 14.2972 5.47378L17.5469 8.1233C18.0178 8.50454 18.3589 8.97768 18.5374 9.49689C18.5934 9.65941 18.5746 13.6607 18.564 15.3905C18.5634 15.4934 18.588 15.5954 18.6362 15.6906C18.6845 15.7858 18.7556 15.8724 18.8453 15.9453C18.9351 16.0182 19.0417 16.0761 19.1592 16.1156C19.2767 16.1551 19.4026 16.1754 19.5299 16.1754C19.7853 16.1754 20.0303 16.0936 20.2113 15.9478C20.3923 15.802 20.4946 15.6042 20.4957 15.3976C20.5039 13.6239 20.5121 9.40626 20.3991 9.07849C20.132 8.30065 19.6211 7.59177 18.916 7.02044L15.6659 4.37092C14.5782 3.49303 13.1044 3 11.5679 3C10.0314 3 8.55764 3.49303 7.46993 4.37092L4.19755 7.01849C3.65766 7.45274 3.22963 7.96933 2.93825 8.53833C2.64686 9.10732 2.49791 9.71743 2.50002 10.3333V16.312C2.50002 17.5553 3.11059 18.7477 4.19741 19.6269C5.28423 20.5061 6.75828 21 8.29527 21H16.8149C17.0711 21 17.3168 20.9177 17.4979 20.7712C17.679 20.6246 17.7808 20.4259 17.7808 20.2187Z" fill="#BFBFBF"/>
<path d="M11.5 8C11.1044 8 10.7178 8.1173 10.3889 8.33706C10.06 8.55682 9.80362 8.86918 9.65224 9.23463C9.50087 9.60008 9.46126 10.0022 9.53843 10.3902C9.6156 10.7781 9.80608 11.1345 10.0858 11.4142C10.3655 11.6939 10.7219 11.8844 11.1098 11.9616C11.4978 12.0387 11.8999 11.9991 12.2654 11.8478C12.6308 11.6964 12.9432 11.44 13.1629 11.1111C13.3827 10.7822 13.5 10.3956 13.5 10C13.5 9.46957 13.2893 8.96086 12.9142 8.58579C12.5391 8.21071 12.0304 8 11.5 8Z" fill="#D9D9D9"/>
<path d="M19.5 17C20.6046 17 21.5 16.1046 21.5 15C21.5 13.8954 20.6046 13 19.5 13C18.3954 13 17.5 13.8954 17.5 15C17.5 16.1046 18.3954 17 19.5 17Z" fill="#BFBFBF"/>
</svg>
