<svg width="64" height="80" viewBox="0 0 64 80" fill="none" xmlns="http://www.w3.org/2000/svg">
<g id="favourite">
<g id="Group">
<path id="Vector 36" d="M14.9996 44C16.4996 49 22.4996 51 23.9996 52C25.1996 52.8 28.833 56.3333 30.4996 58H31.5L39 51.5C41.1667 49.6667 45.9 45.4 47.5 43C49.5 40 49 33 48.5 30.5C48 28 43.5 21.5 41.5 20C39.5 18.5 34.5 17 30.4996 17C26.4993 17 21.5 19 19 21C16.5 23 13.4996 31 12.4996 34C11.4996 37 13.4996 39 14.9996 44Z" fill="#EEE5FF"/>
<circle id="Ellipse 57" cx="31" cy="35" r="12" fill="white"/>
<path id="Vector" d="M37.3862 29.4805C35.7783 27.8115 33.1309 27.3047 31 28.3281C28.8682 27.3047 26.2222 27.8115 24.6138 29.4805C23.6069 30.5244 23.0811 31.8828 23.1323 33.3027C23.2798 37.6006 29.689 42.293 30.4196 42.8146C30.7672 43.0625 31.2334 43.0623 31.5806 42.8144C32.311 42.293 38.7202 37.6006 38.8677 33.3047C38.919 31.8828 38.3931 30.5244 37.3862 29.4805ZM31 40.7529C28.9771 39.1904 25.2183 35.7754 25.1314 33.2324C25.0996 32.3574 25.4267 31.5186 26.0532 30.8682C27.1991 29.6784 29.0796 29.4601 30.4771 30.3174C30.7983 30.5146 31.2017 30.5146 31.523 30.3174C32.9639 29.4316 34.8296 29.71 35.9468 30.8682C36.5732 31.5185 36.9004 32.3574 36.8687 33.2344C36.7817 35.7754 33.023 39.1904 31 40.7529Z" fill="url(#paint0_linear_2002_170)"/>
<path id="Vector_2" d="M50 35C50 24.5337 41.4775 16.0103 30.999 16C20.5225 16.0103 12 24.5337 12 35C12 41.353 15.168 47.2603 20.4766 50.8027C21.6489 51.5831 22.7306 52.3687 23.7398 53.1634C20.1572 54.4261 18 56.5721 18 59C18 62.9253 23.71 66 31 66C38.29 66 44 62.9253 44 59C44 56.5721 41.8428 54.426 38.2601 53.1634C39.2696 52.3685 40.3516 51.5825 41.5244 50.8018C46.832 47.2603 50 41.353 50 35ZM42 59C42 61.3647 37.4824 64 31 64C24.5176 64 20 61.3647 20 59C20 57.2908 22.2174 55.592 25.567 54.6909C26.7332 55.7258 27.7849 56.7809 28.7197 57.8696C28.7197 57.8696 30.2361 59.6457 30.2393 59.6494C30.6342 60.112 31.3654 60.1117 31.7607 59.6494L33.2783 57.8716C34.2141 56.7819 35.2663 55.7263 36.433 54.6909C39.7826 55.592 42 57.2908 42 59ZM31.7588 56.5708L31 57.46L30.2393 56.5689C27.9863 53.9453 25.1553 51.5147 21.585 49.1387C16.8359 45.9688 14 40.6831 14 35C14 25.6353 21.6269 18.0093 30.999 18C40.3731 18.0093 48 25.6353 48 35C48 40.6831 45.1641 45.9688 40.416 49.1377C36.8447 51.5146 34.0137 53.9453 31.7588 56.5708Z" fill="url(#paint1_linear_2002_170)"/>
<path id="Vector_3" d="M31 22C23.832 22 18 27.8315 18 35C18 42.1685 23.832 48 31 48C38.168 48 44 42.1685 44 35C44 27.8315 38.168 22 31 22ZM31 46C24.9346 46 20 41.0654 20 35C20 28.9346 24.9346 24 31 24C37.0654 24 42 28.9346 42 35C42 41.0654 37.0654 46 31 46Z" fill="url(#paint2_linear_2002_170)"/>
</g>
</g>
<defs>
<linearGradient id="paint0_linear_2002_170" x1="23.1289" y1="35.4003" x2="38.8711" y2="35.4003" gradientUnits="userSpaceOnUse">
<stop stop-color="#D8C4FC"/>
<stop offset="0.345" stop-color="#A070F8"/>
<stop offset="0.69" stop-color="#B691FA"/>
<stop offset="1" stop-color="#732CF5"/>
</linearGradient>
<linearGradient id="paint1_linear_2002_170" x1="12" y1="41" x2="50" y2="41" gradientUnits="userSpaceOnUse">
<stop stop-color="#D8C4FC"/>
<stop offset="0.345" stop-color="#A070F8"/>
<stop offset="0.69" stop-color="#B691FA"/>
<stop offset="1" stop-color="#732CF5"/>
</linearGradient>
<linearGradient id="paint2_linear_2002_170" x1="18" y1="35" x2="44" y2="35" gradientUnits="userSpaceOnUse">
<stop stop-color="#D8C4FC"/>
<stop offset="0.345" stop-color="#A070F8"/>
<stop offset="0.69" stop-color="#B691FA"/>
<stop offset="1" stop-color="#732CF5"/>
</linearGradient>
</defs>
</svg>
