<svg width="20" height="20" viewBox="0 0 20 20" fill="none" xmlns="http://www.w3.org/2000/svg">
<path fill-rule="evenodd" clip-rule="evenodd" d="M14.5918 9.48977C16.5079 9.48977 18.0612 7.93647 18.0612 6.02038C18.0612 4.10429 16.5079 2.55099 14.5918 2.55099C12.6757 2.55099 11.1224 4.10429 11.1224 6.02038C11.1224 6.22929 11.1409 6.43389 11.1763 6.63263H11.1197C11.0944 6.86225 10.8997 7.04085 10.6633 7.04085C10.427 7.04085 10.2323 6.86225 10.207 6.63263H6.02042V9.2857H13.4167C13.7837 9.41779 14.1793 9.48977 14.5918 9.48977Z" fill="#732CF5"/>
<path fill-rule="evenodd" clip-rule="evenodd" d="M5.40821 10.5102C3.49212 10.5102 1.93883 12.0635 1.93883 13.9796C1.93883 15.8957 3.49212 17.449 5.40821 17.449C7.3243 17.449 8.8776 15.8957 8.8776 13.9796C8.8776 13.7707 8.85914 13.5661 8.82375 13.3674H8.88032C8.90569 13.1377 9.10034 12.9592 9.33671 12.9592C9.57308 12.9592 9.76773 13.1377 9.79309 13.3674H13.9796V10.7143H6.58333C6.21636 10.5822 5.82069 10.5102 5.40821 10.5102Z" fill="#732CF5"/>
<rect x="11.1224" y="5.81631" width="0.204082" height="1.32653" fill="#732CF5"/>
<rect x="8.87756" y="14.1837" width="0.204082" height="1.32653" transform="rotate(180 8.87756 14.1837)" fill="#732CF5"/>
<circle cx="6.07148" cy="6.68365" r="4.13265" fill="#732CF5"/>
<circle cx="13.9285" cy="13.3164" r="4.13265" transform="rotate(180 13.9285 13.3164)" fill="#732CF5"/>
</svg>
