<svg width="93" height="25" viewBox="0 0 93 25" fill="none" xmlns="http://www.w3.org/2000/svg">
<path fill-rule="evenodd" clip-rule="evenodd" d="M17.5103 11.8877C19.8096 11.8877 21.6736 10.0238 21.6736 7.72448C21.6736 5.42518 19.8096 3.56122 17.5103 3.56122C15.211 3.56122 13.3471 5.42518 13.3471 7.72448C13.3471 7.97516 13.3692 8.22066 13.4117 8.45914H13.3437C13.3133 8.73469 13.0797 8.94901 12.7961 8.94901C12.5124 8.94901 12.2788 8.73469 12.2484 8.45914H7.22461V11.6428H16.1001C16.5405 11.8014 17.0153 11.8877 17.5103 11.8877Z" fill="#732CF5"/>
<path fill-rule="evenodd" clip-rule="evenodd" d="M6.48944 13.1122C4.19013 13.1122 2.32617 14.9762 2.32617 17.2755C2.32617 19.5748 4.19013 21.4388 6.48944 21.4388C8.78874 21.4388 10.6527 19.5748 10.6527 17.2755C10.6527 17.0248 10.6305 16.7793 10.5881 16.5408H10.6559C10.6863 16.2653 10.9199 16.0509 11.2036 16.0509C11.4872 16.0509 11.7208 16.2653 11.7512 16.5408H16.775V13.3572H7.89967C7.45927 13.1986 6.98444 13.1122 6.48944 13.1122Z" fill="#732CF5"/>
<rect x="13.3467" y="7.47955" width="0.244898" height="1.59184" fill="#732CF5"/>
<rect x="10.6533" y="17.5204" width="0.244898" height="1.59184" transform="rotate(180 10.6533 17.5204)" fill="#732CF5"/>
<circle cx="7.28536" cy="8.5204" r="4.95918" fill="#732CF5"/>
<circle cx="7.28536" cy="8.5204" r="4.95918" fill="url(#paint0_linear_429_3865)"/>
<circle cx="16.7146" cy="16.4796" r="4.95918" transform="rotate(180 16.7146 16.4796)" fill="#732CF5"/>
<circle cx="16.7146" cy="16.4796" r="4.95918" transform="rotate(180 16.7146 16.4796)" fill="url(#paint1_linear_429_3865)"/>
<path d="M30.68 5.03601V10.092C31.416 9.35601 32.44 8.90801 33.8 8.90801C36.664 8.90801 38.248 11.388 38.248 14.444V19.628H34.568V14.444C34.568 13.132 34.376 11.868 32.856 11.868C31.336 11.868 30.712 13.068 30.68 14.348V19.628H27V5.03601H30.68Z" fill="#111111"/>
<path d="M44.4736 8.90801C45.9136 8.90801 47.0016 9.42001 47.7536 10.252V9.22801H51.2736V19.628H47.7536V18.604C47.0016 19.436 45.9136 19.948 44.4736 19.948C41.6096 19.948 39.5456 17.468 39.5456 14.428C39.5456 11.372 41.6096 8.90801 44.4736 8.90801ZM45.4176 17.02C46.9696 17.02 47.5936 15.756 47.5936 14.444V14.348C47.5616 13.068 46.9216 11.868 45.4176 11.868C43.8976 11.868 43.2256 13.132 43.2256 14.444C43.2256 15.756 43.8976 17.02 45.4176 17.02Z" fill="#111111"/>
<path d="M63.8174 15.404H56.3614C56.6174 16.444 57.3214 17.084 58.3134 17.084C59.1614 17.084 59.8014 16.716 59.9934 16.076H63.8494C63.2414 18.3 61.4334 19.964 58.3294 19.964C54.5694 19.964 52.5694 17.5 52.5694 14.444C52.5694 11.372 54.4734 8.90801 58.2334 8.90801C61.9934 8.90801 63.8974 11.372 63.8974 14.444C63.8974 14.78 63.8654 15.084 63.8174 15.404ZM58.2334 11.692C57.2894 11.692 56.6974 12.268 56.4254 13.1H60.0254C59.7534 12.268 59.1774 11.692 58.2334 11.692Z" fill="#111111"/>
<path d="M73.2443 12.172H70.7163C69.6123 12.172 68.8763 12.908 68.8763 14.012V19.628H65.1963V14.028C65.1963 11.148 67.1162 9.22801 69.9963 9.22801H73.2443V12.172Z" fill="#111111"/>
<path d="M79.9006 16.684H81.5806V19.628H78.7806C76.8606 19.628 75.5806 18.348 75.5806 16.428V12.108H74.0606V9.16401H75.5806V6.55601H79.2606V9.16401H81.5806V12.108H79.2606V16.044C79.2606 16.428 79.5166 16.684 79.9006 16.684Z" fill="#111111"/>
<path d="M92.3828 19.628H82.6388V17.164L87.3748 12.172H82.7188V9.22801H92.2228V11.852L87.6948 16.684H92.3828V19.628Z" fill="#111111"/>
<defs>
<linearGradient id="paint0_linear_429_3865" x1="7.28536" y1="3.56122" x2="7.28536" y2="13.4796" gradientUnits="userSpaceOnUse">
<stop stop-color="#732CF5"/>
<stop offset="1" stop-color="#431A8F"/>
</linearGradient>
<linearGradient id="paint1_linear_429_3865" x1="16.7146" y1="11.5204" x2="16.7146" y2="21.4388" gradientUnits="userSpaceOnUse">
<stop stop-color="#732CF5"/>
<stop offset="1" stop-color="#431A8F"/>
</linearGradient>
</defs>
</svg>
