<svg width="137" height="37" viewBox="0 0 137 37" fill="none" xmlns="http://www.w3.org/2000/svg">
<path fill-rule="evenodd" clip-rule="evenodd" d="M25.7977 17.6047C29.1601 17.6047 31.8859 14.8789 31.8859 11.5164C31.8859 8.15401 29.1601 5.42822 25.7977 5.42822C22.4353 5.42822 19.7095 8.15401 19.7095 11.5164C19.7095 11.883 19.7419 12.2421 19.804 12.5908H19.7046C19.6601 12.9938 19.3185 13.3072 18.9037 13.3072C18.4889 13.3072 18.1473 12.9938 18.1028 12.5908H10.7562V17.2465H23.7355C24.3795 17.4783 25.0738 17.6047 25.7977 17.6047Z" fill="#732CF5"/>
<path fill-rule="evenodd" clip-rule="evenodd" d="M9.68205 19.3955C6.31962 19.3955 3.59383 22.1213 3.59383 25.4837C3.59383 28.8462 6.31962 31.5719 9.68205 31.5719C13.0445 31.5719 15.7703 28.8462 15.7703 25.4837C15.7703 25.1171 15.7379 24.7581 15.6758 24.4094H15.7751C15.8196 24.0064 16.1612 23.693 16.576 23.693C16.9908 23.693 17.3324 24.0064 17.3769 24.4094H24.7234V19.7537H11.7444C11.1003 19.5218 10.4059 19.3955 9.68205 19.3955Z" fill="#732CF5"/>
<rect x="19.7095" y="11.1584" width="0.35813" height="2.32785" fill="#732CF5"/>
<rect x="15.7701" y="25.8418" width="0.35813" height="2.32785" transform="rotate(180 15.7701 25.8418)" fill="#732CF5"/>
<circle cx="10.846" cy="12.6804" r="7.25214" fill="#732CF5"/>
<circle cx="10.846" cy="12.6804" r="7.25214" fill="url(#paint0_linear_24_440)"/>
<circle cx="24.6336" cy="24.3196" r="7.25214" transform="rotate(180 24.6336 24.3196)" fill="#732CF5"/>
<circle cx="24.6336" cy="24.3196" r="7.25214" transform="rotate(180 24.6336 24.3196)" fill="url(#paint1_linear_24_440)"/>
<path d="M45.0568 8.26343V15.6571C46.1331 14.5808 47.6305 13.9257 49.6193 13.9257C53.8076 13.9257 56.124 17.5524 56.124 22.0214V29.6023H50.7424V22.0214C50.7424 20.1027 50.4617 18.2543 48.2389 18.2543C46.0161 18.2543 45.1036 20.0091 45.0568 21.881V29.6023H39.6753V8.26343H45.0568Z" fill="#111111"/>
<path d="M65.2281 13.9257C67.3339 13.9257 68.925 14.6744 70.0247 15.8911V14.3937H75.1722V29.6023H70.0247V28.1048C68.925 29.3215 67.3339 30.0702 65.2281 30.0702C61.0399 30.0702 58.0216 26.4436 58.0216 21.998C58.0216 17.529 61.0399 13.9257 65.2281 13.9257ZM66.6086 25.7884C68.8782 25.7884 69.7907 23.94 69.7907 22.0214V21.881C69.7439 20.0091 68.808 18.2543 66.6086 18.2543C64.3858 18.2543 63.4031 20.1027 63.4031 22.0214C63.4031 23.94 64.3858 25.7884 66.6086 25.7884Z" fill="#111111"/>
<path d="M93.5157 23.4252H82.6123C82.9867 24.9461 84.0162 25.882 85.4669 25.882C86.707 25.882 87.6429 25.3439 87.9236 24.4079H93.5625C92.6734 27.6602 90.0294 30.0936 85.4903 30.0936C79.9918 30.0936 77.067 26.4904 77.067 22.0214C77.067 17.529 79.8514 13.9257 85.3499 13.9257C90.8484 13.9257 93.6327 17.529 93.6327 22.0214C93.6327 22.5127 93.5859 22.9573 93.5157 23.4252ZM85.3499 17.9969C83.9694 17.9969 83.1037 18.8393 82.7059 20.0559H87.9704C87.5727 18.8393 86.7304 17.9969 85.3499 17.9969Z" fill="#111111"/>
<path d="M107.301 18.6989H103.604C101.99 18.6989 100.914 19.7752 100.914 21.3896V29.6023H95.5321V21.413C95.5321 17.2014 98.3399 14.3937 102.552 14.3937H107.301V18.6989Z" fill="#111111"/>
<path d="M117.035 25.2971H119.492V29.6023H115.397C112.59 29.6023 110.718 27.7304 110.718 24.9227V18.6053H108.495V14.3001H110.718V10.4862H116.099V14.3001H119.492V18.6053H116.099V24.3611C116.099 24.9227 116.474 25.2971 117.035 25.2971Z" fill="#111111"/>
<path d="M135.289 29.6023H121.039V25.999L127.965 18.6989H121.156V14.3937H135.055V18.2309L128.433 25.2971H135.289V29.6023Z" fill="#111111"/>
<defs>
<linearGradient id="paint0_linear_24_440" x1="10.846" y1="5.42822" x2="10.846" y2="19.9325" gradientUnits="userSpaceOnUse">
<stop stop-color="#732CF5"/>
<stop offset="1" stop-color="#431A8F"/>
</linearGradient>
<linearGradient id="paint1_linear_24_440" x1="24.6336" y1="17.0675" x2="24.6336" y2="31.5718" gradientUnits="userSpaceOnUse">
<stop stop-color="#732CF5"/>
<stop offset="1" stop-color="#431A8F"/>
</linearGradient>
</defs>
</svg>
