<svg width="22" height="20" viewBox="0 0 22 20" fill="none" xmlns="http://www.w3.org/2000/svg">
<g id="Calendar">
<g id="Group">
<g id="Group_2">
<rect id="Rectangle 2582" x="2" y="6" width="16" height="12" rx="3" fill="#D8C4FC"/>
<path id="Vector" d="M12.1193 19H5.35158C4.22426 18.9988 3.14346 18.5539 2.34633 17.763C1.54919 16.9721 1.10083 15.8998 1.09961 14.7812L1.09961 9.01562C1.10083 7.89711 1.54919 6.82476 2.34633 6.03385C3.14346 5.24295 4.22426 4.79808 5.35158 4.79688H14.9894C16.1167 4.79808 17.1975 5.24295 17.9946 6.03385C18.7918 6.82476 19.2401 7.89711 19.2413 9.01562V14.9922C19.2413 15.1787 19.1667 15.3575 19.0338 15.4894C18.9009 15.6212 18.7206 15.6953 18.5327 15.6953C18.3447 15.6953 18.1645 15.6212 18.0316 15.4894C17.8987 15.3575 17.824 15.1787 17.824 14.9922V9.01562C17.8232 8.26996 17.5243 7.55508 16.9928 7.02781C16.4614 6.50055 15.7409 6.20396 14.9894 6.20312H5.35158C4.60004 6.20396 3.87953 6.50055 3.34811 7.02781C2.8167 7.55508 2.51778 8.26996 2.51693 9.01562V14.7812C2.51778 15.5269 2.8167 16.2418 3.34811 16.7691C3.87953 17.2963 4.60004 17.5929 5.35158 17.5938H12.1193C12.3072 17.5938 12.4875 17.6678 12.6204 17.7997C12.7533 17.9316 12.828 18.1104 12.828 18.2969C12.828 18.4834 12.7533 18.6622 12.6204 18.7941C12.4875 18.9259 12.3072 19 12.1193 19Z" fill="#732CF5"/>
<path id="Vector_2" d="M8.25783 3.10938C8.25783 2.54993 8.03384 2.01341 7.63514 1.61782C7.23644 1.22224 6.69569 1 6.13184 1C5.568 1 5.02725 1.22224 4.62855 1.61782C4.22985 2.01341 4.00586 2.54993 4.00586 3.10938C4.00586 3.29586 4.08052 3.4747 4.21342 3.60656C4.34632 3.73842 4.52657 3.8125 4.71452 3.8125C4.90247 3.8125 5.08272 3.73842 5.21562 3.60656C5.34852 3.4747 5.42318 3.29586 5.42318 3.10938C5.42318 2.92289 5.49784 2.74405 5.63074 2.61219C5.76364 2.48033 5.94389 2.40625 6.13184 2.40625C6.31979 2.40625 6.50004 2.48033 6.63294 2.61219C6.76584 2.74405 6.84051 2.92289 6.84051 3.10938C6.84051 3.29586 6.91517 3.4747 7.04807 3.60656C7.18097 3.73842 7.36122 3.8125 7.54917 3.8125C7.73712 3.8125 7.91737 3.73842 8.05027 3.60656C8.18317 3.4747 8.25783 3.29586 8.25783 3.10938ZM16.4074 3.10938C16.4074 2.54993 16.1834 2.01341 15.7847 1.61782C15.386 1.22224 14.8453 1 14.2815 1C13.7176 1 13.1769 1.22224 12.7782 1.61782C12.3795 2.01341 12.1555 2.54993 12.1555 3.10938C12.1555 3.29586 12.2301 3.4747 12.363 3.60656C12.4959 3.73842 12.6762 3.8125 12.8641 3.8125C13.0521 3.8125 13.2323 3.73842 13.3652 3.60656C13.4981 3.4747 13.5728 3.29586 13.5728 3.10938C13.5728 2.92289 13.6475 2.74405 13.7804 2.61219C13.9132 2.48033 14.0935 2.40625 14.2815 2.40625C14.4694 2.40625 14.6497 2.48033 14.7825 2.61219C14.9155 2.74405 14.9901 2.92289 14.9901 3.10938C14.9901 3.29586 15.0648 3.4747 15.1977 3.60656C15.3306 3.73842 15.5108 3.8125 15.6988 3.8125C15.8867 3.8125 16.067 3.73842 16.1999 3.60656C16.3328 3.4747 16.4074 3.29586 16.4074 3.10938Z" fill="#732CF5"/>
<g id="Group_3">
<path id="Vector_3" d="M5.7413 8.10156C5.5661 8.10156 5.39483 8.15311 5.24916 8.24968C5.10348 8.34626 4.98994 8.48353 4.9229 8.64413C4.85585 8.80472 4.83831 8.98144 4.87249 9.15193C4.90667 9.32243 4.99104 9.47903 5.11492 9.60195C5.23881 9.72487 5.39665 9.80857 5.56848 9.84249C5.74031 9.8764 5.91842 9.85899 6.08029 9.79247C6.24215 9.72595 6.3805 9.6133 6.47783 9.46876C6.57517 9.32423 6.62712 9.1543 6.62712 8.98047C6.62712 8.74737 6.53379 8.52381 6.36767 8.35899C6.20155 8.19416 5.97623 8.10156 5.7413 8.10156ZM8.78854 8.10156C8.61334 8.10156 8.44207 8.15311 8.2964 8.24968C8.15073 8.34626 8.03719 8.48353 7.97014 8.64413C7.9031 8.80472 7.88555 8.98144 7.91973 9.15193C7.95391 9.32243 8.03828 9.47903 8.16217 9.60195C8.28605 9.72487 8.44389 9.80857 8.61572 9.84249C8.78756 9.8764 8.96567 9.85899 9.12753 9.79247C9.28939 9.72595 9.42774 9.6133 9.52508 9.46876C9.62241 9.32423 9.67437 9.1543 9.67437 8.98047C9.67437 8.74737 9.58104 8.52381 9.41491 8.35899C9.24879 8.19416 9.02348 8.10156 8.78854 8.10156ZM11.8358 8.10156C11.6606 8.10156 11.4893 8.15311 11.3436 8.24968C11.198 8.34626 11.0844 8.48353 11.0174 8.64413C10.9503 8.80472 10.9328 8.98144 10.967 9.15193C11.0012 9.32243 11.0855 9.47903 11.2094 9.60195C11.3333 9.72487 11.4911 9.80857 11.663 9.84249C11.8348 9.8764 12.0129 9.85899 12.1748 9.79247C12.3366 9.72595 12.475 9.6133 12.5723 9.46876C12.6697 9.32423 12.7216 9.1543 12.7216 8.98047C12.7216 8.74737 12.6283 8.52381 12.4622 8.35899C12.296 8.19416 12.0707 8.10156 11.8358 8.10156ZM14.883 8.10156C14.7078 8.10156 14.5366 8.15311 14.3909 8.24968C14.2452 8.34626 14.1317 8.48353 14.0646 8.64413C13.9976 8.80472 13.98 8.98144 14.0142 9.15193C14.0484 9.32243 14.1328 9.47903 14.2567 9.60195C14.3805 9.72487 14.5384 9.80857 14.7102 9.84249C14.882 9.8764 15.0602 9.85899 15.222 9.79247C15.3839 9.72595 15.5222 9.6133 15.6196 9.46876C15.7169 9.32423 15.7689 9.1543 15.7689 8.98047C15.7689 8.74737 15.6755 8.52381 15.5094 8.35899C15.3433 8.19416 15.118 8.10156 14.883 8.10156ZM5.7413 11.125C5.5661 11.125 5.39483 11.1765 5.24916 11.2731C5.10348 11.3697 4.98994 11.507 4.9229 11.6676C4.85585 11.8282 4.83831 12.0049 4.87249 12.1754C4.90667 12.3459 4.99104 12.5025 5.11492 12.6254C5.23881 12.7483 5.39665 12.832 5.56848 12.8659C5.74031 12.8998 5.91842 12.8824 6.08029 12.8159C6.24215 12.7494 6.3805 12.6367 6.47783 12.4922C6.57517 12.3477 6.62712 12.1777 6.62712 12.0039C6.62712 11.7708 6.53379 11.5473 6.36767 11.3824C6.20155 11.2176 5.97623 11.125 5.7413 11.125ZM5.7413 14.1484C5.5661 14.1484 5.39483 14.2 5.24916 14.2966C5.10348 14.3931 4.98994 14.5304 4.9229 14.691C4.85585 14.8516 4.83831 15.0283 4.87249 15.1988C4.90667 15.3693 4.99104 15.5259 5.11492 15.6488C5.23881 15.7717 5.39665 15.8554 5.56848 15.8894C5.74031 15.9233 5.91842 15.9059 6.08029 15.8393C6.24215 15.7728 6.3805 15.6602 6.47783 15.5156C6.57517 15.3711 6.62712 15.2012 6.62712 15.0273C6.62712 14.7942 6.53379 14.5707 6.36767 14.4059C6.20155 14.241 5.97623 14.1484 5.7413 14.1484ZM8.78854 11.125C8.61334 11.125 8.44207 11.1765 8.2964 11.2731C8.15073 11.3697 8.03719 11.507 7.97014 11.6676C7.9031 11.8282 7.88555 12.0049 7.91973 12.1754C7.95391 12.3459 8.03828 12.5025 8.16217 12.6254C8.28605 12.7483 8.44389 12.832 8.61572 12.8659C8.78756 12.8998 8.96567 12.8824 9.12753 12.8159C9.28939 12.7494 9.42774 12.6367 9.52508 12.4922C9.62241 12.3477 9.67437 12.1777 9.67437 12.0039C9.67437 11.7708 9.58104 11.5473 9.41491 11.3824C9.24879 11.2176 9.02348 11.125 8.78854 11.125ZM8.78854 14.1484C8.61334 14.1484 8.44207 14.2 8.2964 14.2966C8.15073 14.3931 8.03719 14.5304 7.97014 14.691C7.9031 14.8516 7.88555 15.0283 7.91973 15.1988C7.95391 15.3693 8.03828 15.5259 8.16217 15.6488C8.28605 15.7717 8.44389 15.8554 8.61572 15.8894C8.78756 15.9233 8.96567 15.9059 9.12753 15.8393C9.28939 15.7728 9.42774 15.6602 9.52508 15.5156C9.62241 15.3711 9.67437 15.2012 9.67437 15.0273C9.67437 14.7942 9.58104 14.5707 9.41491 14.4059C9.24879 14.241 9.02348 14.1484 8.78854 14.1484ZM11.8358 14.1484C11.6606 14.1484 11.4893 14.2 11.3436 14.2966C11.198 14.3931 11.0844 14.5304 11.0174 14.691C10.9503 14.8516 10.9328 15.0283 10.967 15.1988C11.0012 15.3693 11.0855 15.5259 11.2094 15.6488C11.3333 15.7717 11.4911 15.8554 11.663 15.8894C11.8348 15.9233 12.0129 15.9059 12.1748 15.8393C12.3366 15.7728 12.475 15.6602 12.5723 15.5156C12.6697 15.3711 12.7216 15.2012 12.7216 15.0273C12.7216 14.7942 12.6283 14.5707 12.4622 14.4059C12.296 14.241 12.0707 14.1484 11.8358 14.1484ZM11.8358 11.125C11.6606 11.125 11.4893 11.1765 11.3436 11.2731C11.198 11.3697 11.0844 11.507 11.0174 11.6676C10.9503 11.8282 10.9328 12.0049 10.967 12.1754C11.0012 12.3459 11.0855 12.5025 11.2094 12.6254C11.3333 12.7483 11.4911 12.832 11.663 12.8659C11.8348 12.8998 12.0129 12.8824 12.1748 12.8159C12.3366 12.7494 12.475 12.6367 12.5723 12.4922C12.6697 12.3477 12.7216 12.1777 12.7216 12.0039C12.7216 11.7708 12.6283 11.5473 12.4622 11.3824C12.296 11.2176 12.0707 11.125 11.8358 11.125ZM14.883 11.125C14.7078 11.125 14.5366 11.1765 14.3909 11.2731C14.2452 11.3697 14.1317 11.507 14.0646 11.6676C13.9976 11.8282 13.98 12.0049 14.0142 12.1754C14.0484 12.3459 14.1328 12.5025 14.2567 12.6254C14.3805 12.7483 14.5384 12.832 14.7102 12.8659C14.882 12.8998 15.0602 12.8824 15.222 12.8159C15.3839 12.7494 15.5222 12.6367 15.6196 12.4922C15.7169 12.3477 15.7689 12.1777 15.7689 12.0039C15.7689 11.7708 15.6755 11.5473 15.5094 11.3824C15.3433 11.2176 15.118 11.125 14.883 11.125Z" fill="#A070F8"/>
</g>
<path id="Vector_4" d="M18.5264 17.3213C19.8375 17.3213 20.9004 16.2667 20.9004 14.9658C20.9004 13.6649 19.8375 12.6104 18.5264 12.6104C17.2152 12.6104 16.1523 13.6649 16.1523 14.9658C16.1523 16.2667 17.2152 17.3213 18.5264 17.3213Z" fill="#732CF5"/>
</g>
</g>
</g>
</svg>
