<svg width="16" height="16" viewBox="0 0 16 16" fill="none" xmlns="http://www.w3.org/2000/svg">
<g id="Icon/rotate">
<path id="Vector" d="M7.8975 14.8C6.0575 14.8 4.3175 14.08 3.0175 12.78C0.3275 10.09 0.3275 5.71 3.0175 3.02C4.3175 1.72 6.0475 1 7.8975 1C9.7475 1 11.4475 1.71 12.7475 2.99L12.8175 3.06L14.1875 1.69C14.3075 1.57 14.4775 1.5 14.6475 1.5C14.7375 1.5 14.8175 1.52 14.8975 1.55C15.1375 1.65 15.2975 1.89 15.2975 2.15V6.15C15.2975 6.51 15.0075 6.8 14.6475 6.8H10.6475C10.3875 6.8 10.1475 6.64 10.0475 6.4C9.9475 6.15 10.0075 5.88 10.1875 5.69L11.5475 4.33L11.4775 4.26C10.5175 3.32 9.2475 2.8 7.8975 2.8C6.5475 2.8 5.2575 3.33 4.2875 4.29C2.2975 6.28 2.2975 9.51 4.2875 11.5C5.2475 12.46 6.5275 12.99 7.8975 12.99C9.2675 12.99 10.5375 12.46 11.5075 11.5C11.6775 11.33 11.9075 11.24 12.1475 11.24C12.3875 11.24 12.6175 11.33 12.7875 11.5C12.9575 11.67 13.0475 11.9 13.0475 12.14C13.0475 12.38 12.9575 12.61 12.7875 12.78C11.4875 14.08 9.7475 14.8 7.9075 14.8H7.8975Z" fill="white"/>
</g>
</svg>
