<svg width="20" height="20" viewBox="0 0 20 20" fill="none" xmlns="http://www.w3.org/2000/svg">
<path d="M8.67486 3.59238C9.26868 2.42878 10.9313 2.42878 11.5251 3.59238L12.6078 5.71386C12.8403 6.16941 13.2765 6.48637 13.7816 6.5667L16.1339 6.9408C17.424 7.14599 17.9378 8.72725 17.0146 9.65159L15.3316 11.3368C14.9701 11.6987 14.8035 12.2116 14.8832 12.7168L15.2543 15.0695C15.4578 16.3599 14.1127 17.3371 12.9483 16.7448L10.8255 15.6649C10.3696 15.433 9.83038 15.433 9.37453 15.6649L7.25166 16.7448C6.0873 17.3371 4.7422 16.3599 4.94573 15.0694L5.31681 12.7168C5.3965 12.2116 5.22986 11.6987 4.86845 11.3368L3.18536 9.65159C2.26221 8.72725 2.776 7.14599 4.06615 6.9408L6.41836 6.5667C6.92345 6.48637 7.35971 6.16941 7.59219 5.71386L8.67486 3.59238Z" fill="#FFB731"/>
</svg>
