<svg width="16" height="17" viewBox="0 0 16 17" fill="none" xmlns="http://www.w3.org/2000/svg">
<g id="Frame 1597880871">
<path id="Star 1" d="M6.81238 2.82715C7.30723 1.85748 8.69277 1.85748 9.18762 2.82715L10.0898 4.59505C10.2836 4.97467 10.6471 5.23881 11.068 5.30575L13.0282 5.6175C14.1033 5.78849 14.5315 7.10621 13.7622 7.87649L12.3596 9.28086C12.0584 9.58242 11.9196 10.0098 11.986 10.4308L12.2952 12.3914C12.4648 13.4667 11.3439 14.2811 10.3736 13.7875L8.60456 12.8875C8.22468 12.6943 7.77532 12.6943 7.39544 12.8876L5.62639 13.7875C4.65608 14.2811 3.53516 13.4667 3.70478 12.3914L4.01401 10.4308C4.08041 10.0098 3.94155 9.58242 3.64037 9.28086L2.2378 7.87649C1.46851 7.10621 1.89666 5.78849 2.97179 5.6175L4.93196 5.30575C5.35288 5.23881 5.71643 4.97467 5.91016 4.59505L6.81238 2.82715Z" fill="#FFB731"/>
</g>
</svg>
