<svg width="93" height="25" viewBox="0 0 93 25" fill="none" xmlns="http://www.w3.org/2000/svg">
<path fill-rule="evenodd" clip-rule="evenodd" d="M17.5102 11.8878C19.8095 11.8878 21.6735 10.0238 21.6735 7.7245C21.6735 5.42519 19.8095 3.56123 17.5102 3.56123C15.2109 3.56123 13.3469 5.42519 13.3469 7.7245C13.3469 7.97518 13.3691 8.22068 13.4116 8.45916H13.3436C13.3132 8.7347 13.0796 8.94903 12.7959 8.94903C12.5123 8.94903 12.2787 8.7347 12.2483 8.45916H7.22449V11.6428H16.0999C16.5403 11.8014 17.0152 11.8878 17.5102 11.8878Z" fill="#732CF5"/>
<path fill-rule="evenodd" clip-rule="evenodd" d="M6.48993 13.1122C4.19062 13.1122 2.32666 14.9762 2.32666 17.2755C2.32666 19.5748 4.19062 21.4388 6.48993 21.4388C8.78923 21.4388 10.6532 19.5748 10.6532 17.2755C10.6532 17.0248 10.631 16.7793 10.5886 16.5408H10.6564C10.6868 16.2653 10.9204 16.0509 11.2041 16.0509C11.4877 16.0509 11.7213 16.2653 11.7517 16.5408H16.7755V13.3571H7.90016C7.45976 13.1986 6.98493 13.1122 6.48993 13.1122Z" fill="#732CF5"/>
<rect x="13.3469" y="7.47954" width="0.244898" height="1.59184" fill="#732CF5"/>
<rect x="10.6531" y="17.5205" width="0.244898" height="1.59184" transform="rotate(180 10.6531 17.5205)" fill="#732CF5"/>
<circle cx="7.28584" cy="8.52042" r="4.95918" fill="#732CF5"/>
<circle cx="7.28584" cy="8.52042" r="4.95918" fill="url(#paint0_linear_2_45)"/>
<circle cx="16.7142" cy="16.4796" r="4.95918" transform="rotate(180 16.7142 16.4796)" fill="#732CF5"/>
<circle cx="16.7142" cy="16.4796" r="4.95918" transform="rotate(180 16.7142 16.4796)" fill="url(#paint1_linear_2_45)"/>
<path d="M30.68 5.5V10.556C31.416 9.82 32.44 9.372 33.8 9.372C36.664 9.372 38.248 11.852 38.248 14.908V20.092H34.568V14.908C34.568 13.596 34.376 12.332 32.856 12.332C31.336 12.332 30.712 13.532 30.68 14.812V20.092H27V5.5H30.68Z" fill="#111111"/>
<path d="M44.4736 9.372C45.9136 9.372 47.0016 9.884 47.7536 10.716V9.692H51.2736V20.092H47.7536V19.068C47.0016 19.9 45.9136 20.412 44.4736 20.412C41.6096 20.412 39.5456 17.932 39.5456 14.892C39.5456 11.836 41.6096 9.372 44.4736 9.372ZM45.4176 17.484C46.9696 17.484 47.5936 16.22 47.5936 14.908V14.812C47.5616 13.532 46.9216 12.332 45.4176 12.332C43.8976 12.332 43.2256 13.596 43.2256 14.908C43.2256 16.22 43.8976 17.484 45.4176 17.484Z" fill="#111111"/>
<path d="M63.8174 15.868H56.3614C56.6174 16.908 57.3214 17.548 58.3134 17.548C59.1614 17.548 59.8014 17.18 59.9934 16.54H63.8494C63.2414 18.764 61.4334 20.428 58.3294 20.428C54.5694 20.428 52.5694 17.964 52.5694 14.908C52.5694 11.836 54.4734 9.372 58.2334 9.372C61.9934 9.372 63.8974 11.836 63.8974 14.908C63.8974 15.244 63.8654 15.548 63.8174 15.868ZM58.2334 12.156C57.2894 12.156 56.6974 12.732 56.4254 13.564H60.0254C59.7534 12.732 59.1774 12.156 58.2334 12.156Z" fill="#111111"/>
<path d="M73.2443 12.636H70.7163C69.6123 12.636 68.8763 13.372 68.8763 14.476V20.092H65.1963V14.492C65.1963 11.612 67.1163 9.692 69.9963 9.692H73.2443V12.636Z" fill="#111111"/>
<path d="M79.9006 17.148H81.5806V20.092H78.7806C76.8606 20.092 75.5806 18.812 75.5806 16.892V12.572H74.0606V9.628H75.5806V7.02H79.2606V9.628H81.5806V12.572H79.2606V16.508C79.2606 16.892 79.5166 17.148 79.9006 17.148Z" fill="#111111"/>
<path d="M92.3828 20.092H82.6388V17.628L87.3748 12.636H82.7188V9.692H92.2228V12.316L87.6948 17.148H92.3828V20.092Z" fill="#111111"/>
<defs>
<linearGradient id="paint0_linear_2_45" x1="7.28584" y1="3.56123" x2="7.28584" y2="13.4796" gradientUnits="userSpaceOnUse">
<stop stop-color="#732CF5"/>
<stop offset="1" stop-color="#431A8F"/>
</linearGradient>
<linearGradient id="paint1_linear_2_45" x1="16.7142" y1="11.5204" x2="16.7142" y2="21.4388" gradientUnits="userSpaceOnUse">
<stop stop-color="#732CF5"/>
<stop offset="1" stop-color="#431A8F"/>
</linearGradient>
</defs>
</svg>
